<svg width="36" height="52" viewBox="0 0 36 52" fill="none" xmlns="http://www.w3.org/2000/svg">
<path d="M34.8775 0.202523C34.5412 0.0386359 34.1656 -0.0276272 33.7935 0.0112626C33.4214 0.0501525 33.0677 0.192636 32.7725 0.422523L15.3125 14H4C2.93913 14 1.92172 14.4215 1.17157 15.1716C0.421427 15.9217 0 16.9392 0 18V34C0 35.0609 0.421427 36.0783 1.17157 36.8284C1.92172 37.5786 2.93913 38 4 38H15.3125L32.7725 51.5775C33.068 51.8072 33.4219 51.9494 33.7942 51.9879C34.1664 52.0264 34.542 51.9597 34.8782 51.7954C35.2145 51.631 35.4978 51.3757 35.6961 51.0583C35.8944 50.7409 35.9997 50.3743 36 50V2.00002C36.0001 1.62534 35.8949 1.25818 35.6964 0.94038C35.4979 0.622577 35.2142 0.366914 34.8775 0.202523ZM4 18H14V34H4V18ZM32 45.91L18 35.0225V16.9775L32 6.09002V45.91Z" fill="#F8F8FC"/>
</svg>
