<svg width="48" height="56" viewBox="0 0 48 56" fill="none" xmlns="http://www.w3.org/2000/svg">
<path d="M24 8C19.2533 8 14.6131 9.40758 10.6663 12.0447C6.71955 14.6819 3.64341 18.4302 1.8269 22.8156C0.0103989 27.201 -0.464881 32.0266 0.461164 36.6822C1.38721 41.3377 3.67299 45.6141 7.02945 48.9706C10.3859 52.327 14.6623 54.6128 19.3178 55.5388C23.9734 56.4649 28.799 55.9896 33.1844 54.1731C37.5698 52.3566 41.3181 49.2805 43.9553 45.3337C46.5924 41.3869 48 36.7467 48 32C47.9927 25.637 45.4618 19.5368 40.9625 15.0375C36.4632 10.5382 30.363 8.00728 24 8ZM24 52C20.0444 52 16.1776 50.827 12.8886 48.6294C9.59962 46.4318 7.03617 43.3082 5.52242 39.6537C4.00867 35.9991 3.6126 31.9778 4.38431 28.0982C5.15601 24.2186 7.06083 20.6549 9.85788 17.8579C12.6549 15.0608 16.2186 13.156 20.0982 12.3843C23.9778 11.6126 27.9992 12.0087 31.6537 13.5224C35.3082 15.0362 38.4318 17.5996 40.6294 20.8886C42.827 24.1776 44 28.0444 44 32C43.9941 37.3025 41.885 42.3861 38.1356 46.1356C34.3861 49.885 29.3025 51.994 24 52ZM35.415 20.585C35.601 20.7707 35.7485 20.9913 35.8491 21.2341C35.9498 21.4769 36.0016 21.7372 36.0016 22C36.0016 22.2628 35.9498 22.5231 35.8491 22.7659C35.7485 23.0087 35.601 23.2293 35.415 23.415L25.415 33.415C25.2292 33.6008 25.0086 33.7482 24.7658 33.8488C24.523 33.9494 24.2628 34.0011 24 34.0011C23.7372 34.0011 23.477 33.9494 23.2342 33.8488C22.9914 33.7482 22.7708 33.6008 22.585 33.415C22.3992 33.2292 22.2518 33.0086 22.1512 32.7658C22.0507 32.523 21.9989 32.2628 21.9989 32C21.9989 31.7372 22.0507 31.477 22.1512 31.2342C22.2518 30.9914 22.3992 30.7708 22.585 30.585L32.585 20.585C32.7708 20.399 32.9913 20.2515 33.2341 20.1509C33.4769 20.0502 33.7372 19.9984 34 19.9984C34.2628 19.9984 34.5231 20.0502 34.7659 20.1509C35.0087 20.2515 35.2293 20.399 35.415 20.585ZM16 2C16 1.46957 16.2107 0.960859 16.5858 0.585786C16.9609 0.210714 17.4696 0 18 0H30C30.5304 0 31.0392 0.210714 31.4142 0.585786C31.7893 0.960859 32 1.46957 32 2C32 2.53043 31.7893 3.03914 31.4142 3.41421C31.0392 3.78929 30.5304 4 30 4H18C17.4696 4 16.9609 3.78929 16.5858 3.41421C16.2107 3.03914 16 2.53043 16 2Z" fill="#F8F8FC"/>
</svg>
